<?xml version="1.0" standalone="no"?>
<!DOCTYPE svg PUBLIC "-//W3C//DTD SVG 20010904//EN"
 "http://www.w3.org/TR/2001/REC-SVG-20010904/DTD/svg10.dtd">
<svg version="1.0" xmlns="http://www.w3.org/2000/svg"
 width="700.000000pt" height="700.000000pt" viewBox="0 0 700.000000 700.000000"
 preserveAspectRatio="xMidYMid meet">
<metadata>
Created by potrace 1.11, written by Peter Selinger 2001-2013
</metadata>
<g transform="translate(0.000000,700.000000) scale(0.100000,-0.100000)"
fill="#000000" stroke="none">
<path d="M445 6918 c4 -46 9 -99 10 -119 2 -20 6 -64 9 -98 3 -33 9 -88 12
-121 3 -33 7 -84 10 -113 9 -121 13 -179 18 -224 3 -26 8 -82 11 -123 3 -41 8
-86 10 -100 2 -14 6 -68 10 -120 3 -52 8 -106 10 -120 3 -23 13 -130 20 -225
4 -40 12 -130 20 -215 2 -25 7 -79 10 -120 4 -41 8 -86 10 -100 2 -14 6 -68
10 -120 3 -52 8 -106 10 -120 2 -14 6 -61 10 -105 3 -44 7 -96 10 -115 2 -19
7 -71 10 -115 3 -44 8 -93 10 -110 2 -16 7 -61 10 -100 7 -96 14 -181 20 -235
2 -25 7 -81 10 -125 4 -44 8 -97 11 -118 2 -20 6 -68 9 -105 3 -37 7 -87 10
-112 2 -25 7 -71 10 -102 3 -32 7 -82 10 -110 3 -29 7 -82 10 -118 3 -36 7
-85 10 -110 2 -25 7 -76 10 -115 8 -97 15 -174 20 -215 2 -19 7 -75 10 -124 4
-49 8 -101 10 -115 2 -14 6 -64 10 -111 4 -47 8 -103 11 -125 2 -22 6 -71 9
-110 3 -38 7 -86 10 -105 2 -19 7 -69 10 -110 4 -41 8 -91 10 -110 2 -19 7
-73 10 -120 3 -47 8 -96 10 -110 2 -14 7 -68 11 -120 3 -52 7 -97 9 -100 2 -3
6 -50 10 -105 3 -55 8 -111 10 -125 2 -14 6 -63 10 -110 3 -47 8 -103 10 -125
4 -42 11 -117 21 -227 8 -96 9 -99 25 -108 8 -4 160 -49 339 -99 179 -51 361
-103 405 -116 44 -13 211 -60 370 -105 160 -45 376 -107 480 -137 105 -30 260
-74 345 -98 85 -24 243 -69 350 -100 l194 -55 126 35 c69 20 154 45 190 55
106 32 423 121 445 125 11 3 49 14 85 24 91 28 195 57 260 75 30 8 105 29 165
46 61 18 117 33 125 36 8 2 65 18 125 35 61 17 283 80 495 140 212 60 411 116
443 125 l57 17 1 41 c1 23 2 52 4 66 1 14 5 65 9 114 5 50 9 97 11 105 2 9 6
63 10 121 4 58 9 112 10 121 2 8 6 53 10 100 3 46 8 95 10 109 2 14 7 63 10
110 3 47 8 99 9 115 2 17 7 68 10 115 4 47 9 96 11 110 2 14 7 70 11 125 3 55
8 107 9 115 2 8 6 53 9 100 4 47 9 105 11 130 2 25 7 74 10 110 3 36 8 81 10
100 3 19 7 76 11 125 3 50 7 101 9 115 2 14 7 59 10 100 3 41 7 95 10 120 2
25 7 72 10 105 3 33 7 83 10 110 3 28 7 79 10 115 3 36 7 90 10 120 3 30 7 81
10 113 13 144 15 175 20 222 8 76 15 163 20 235 3 36 7 85 10 110 7 67 15 157
20 230 5 60 7 89 20 220 3 25 7 77 11 115 3 39 7 86 9 105 2 19 6 71 10 115 3
44 8 94 9 110 2 17 7 68 10 115 4 47 9 101 11 120 2 19 6 71 10 115 3 44 8 96
10 115 5 41 21 220 31 335 3 44 8 98 10 120 2 22 6 70 9 106 3 37 8 86 10 110
3 24 7 69 10 99 8 94 26 302 31 360 2 30 6 75 9 100 3 25 7 80 11 123 l6 77
-3062 0 -3062 0 7 -82z m5673 -577 c7 -1 11 -4 9 -9 -3 -4 -8 -48 -12 -97 -3
-50 -8 -101 -10 -115 -2 -14 -7 -65 -10 -115 -4 -49 -8 -103 -10 -120 -1 -16
-6 -66 -9 -110 -4 -44 -9 -96 -11 -115 -3 -19 -7 -73 -11 -120 -3 -47 -7 -101
-9 -120 -2 -19 -6 -69 -10 -110 -3 -41 -7 -91 -10 -110 -2 -19 -7 -71 -10
-115 -6 -84 -12 -147 -20 -230 -2 -27 -7 -84 -10 -125 -3 -41 -8 -91 -10 -110
-2 -19 -7 -69 -10 -110 -3 -41 -8 -95 -10 -120 -2 -25 -7 -79 -10 -120 -3 -41
-8 -91 -10 -110 -2 -19 -7 -73 -10 -120 -3 -47 -8 -101 -10 -120 -3 -19 -7
-69 -10 -110 -3 -41 -7 -91 -10 -110 -2 -19 -7 -71 -10 -115 -3 -44 -7 -100
-10 -125 -6 -56 -12 -124 -20 -220 -3 -41 -8 -97 -11 -125 -3 -27 -7 -77 -9
-110 -3 -33 -7 -80 -9 -105 -3 -25 -8 -79 -11 -120 -3 -41 -8 -95 -10 -120 -3
-25 -7 -74 -10 -110 -3 -36 -7 -90 -10 -120 -3 -30 -7 -77 -10 -105 -2 -27 -7
-77 -10 -110 -5 -57 -7 -85 -20 -249 -3 -38 -7 -85 -10 -105 -2 -20 -7 -76
-11 -126 -3 -49 -7 -97 -9 -105 -2 -8 -6 -58 -10 -110 -4 -52 -9 -106 -10
-120 -2 -14 -3 -39 -4 -56 -1 -27 -6 -32 -43 -43 -24 -7 -92 -28 -153 -46
-224 -69 -1984 -595 -1990 -595 -3 0 -5 1279 -5 2843 l0 2842 1303 -1 c716 -1
1308 -2 1315 -3z m-4146 -1310 l3 -875 200 -1 c110 0 207 1 216 3 14 3 15 89
15 869 -1 476 1 868 4 872 3 4 150 7 328 7 320 1 322 1 323 -20 1 -27 1 -4304
0 -4334 l-1 -22 -327 2 -327 3 0 983 0 982 -218 0 -218 0 0 -985 0 -985 -329
0 -328 0 -1 2183 c0 1200 2 2184 3 2187 2 4 150 6 329 6 l326 0 2 -875z"/>
<path d="M4379 5901 c-1 -3 -2 -151 -3 -328 l-1 -323 327 0 328 0 0 328 0 329
-325 -1 c-179 0 -326 -2 -326 -5z"/>
<path d="M4378 4800 c-2 -8 -4 -746 -3 -1640 l0 -1625 328 -3 327 -2 0 1640
c0 1305 -3 1640 -12 1641 -7 0 -153 1 -325 2 -270 2 -312 0 -315 -13z"/>
</g>
</svg>
